{
	"asset":{
		"generator":"Khronos glTF Blender I/O v4.2.57",
		"version":"2.0"
	},
	"extensionsUsed":[
		"KHR_texture_transform"
	],
	"extensionsRequired":[
		"KHR_texture_transform"
	],
	"scene":0,
	"scenes":[
		{
			"name":"Scene",
			"nodes":[
				0,
				1,
				2,
				3
			]
		}
	],
	"nodes":[
		{
			"mesh":0,
			"name":"Plane",
			"scale":[
				5,
				10,
				5
			],
			"translation":[
				-0.009476371109485626,
				0,
				-0.09109389036893845
			]
		},
		{
			"mesh":1,
			"name":"Cube",
			"scale":[
				1.4464365243911743,
				0.0019855976570397615,
				1.4464365243911743
			],
			"translation":[
				-0.009476371109485626,
				-0.0576796792447567,
				0.13336199522018433
			]
		},
		{
			"mesh":2,
			"name":"Cube.001",
			"scale":[
				5,
				0.15000000596046448,
				5
			],
			"translation":[
				-0.009476371109485626,
				4.173563003540039,
				-0.09109389036893845
			]
		},
		{
			"mesh":3,
			"name":"Cube.002",
			"scale":[
				0.21858498454093933,
				0.15000000596046448,
				0.9795475006103516
			],
			"translation":[
				-0.04738185554742813,
				4.173563003540039,
				-0.6799253225326538
			]
		}
	],
	"materials":[
		{
			"doubleSided":true,
			"name":"Cobbles",
			"normalTexture":{
				"extensions":{
					"KHR_texture_transform":{
						"offset":[
							0,
							-9
						],
						"scale":[
							10,
							10
						]
					}
				},
				"index":0,
				"scale":3,
				"texCoord":1
			},
			"pbrMetallicRoughness":{
				"baseColorTexture":{
					"extensions":{
						"KHR_texture_transform":{
							"offset":[
								0,
								-9
							],
							"scale":[
								10,
								10
							]
						}
					},
					"index":1,
					"texCoord":1
				},
				"metallicFactor":0,
				"metallicRoughnessTexture":{
					"extensions":{
						"KHR_texture_transform":{
							"offset":[
								0,
								-9
							],
							"scale":[
								10,
								10
							]
						}
					},
					"index":2,
					"texCoord":1
				}
			}
		},
		{
			"doubleSided":true,
			"name":"Sand.001",
			"normalTexture":{
				"index":3,
				"texCoord":1
			},
			"pbrMetallicRoughness":{
				"baseColorTexture":{
					"index":4,
					"texCoord":1
				},
				"metallicFactor":0,
				"metallicRoughnessTexture":{
					"index":5,
					"texCoord":1
				}
			}
		},
		{
			"doubleSided":true,
			"name":"roof",
			"normalTexture":{
				"extensions":{
					"KHR_texture_transform":{
						"offset":[
							-0.10000000149011602,
							1.0689000009498324
						],
						"rotation":1.5707963705062866,
						"scale":[
							0.23000000417232513,
							0.10000000149011612
						]
					}
				},
				"index":6,
				"texCoord":1
			},
			"pbrMetallicRoughness":{
				"baseColorTexture":{
					"extensions":{
						"KHR_texture_transform":{
							"offset":[
								-0.10000000149011602,
								1.0689000009498324
							],
							"rotation":1.5707963705062866,
							"scale":[
								0.23000000417232513,
								0.10000000149011612
							]
						}
					},
					"index":7,
					"texCoord":1
				},
				"metallicFactor":0,
				"metallicRoughnessTexture":{
					"extensions":{
						"KHR_texture_transform":{
							"offset":[
								-0.10000000149011602,
								1.0689000009498324
							],
							"rotation":1.5707963705062866,
							"scale":[
								0.23000000417232513,
								0.10000000149011612
							]
						}
					},
					"index":8,
					"texCoord":1
				}
			}
		},
		{
			"doubleSided":true,
			"name":"dropped plank.001",
			"normalTexture":{
				"extensions":{
					"KHR_texture_transform":{
						"offset":[
							0,
							1.4901161193847656e-08
						],
						"scale":[
							1,
							0.8899999856948853
						]
					}
				},
				"index":9,
				"texCoord":1
			},
			"pbrMetallicRoughness":{
				"baseColorTexture":{
					"extensions":{
						"KHR_texture_transform":{
							"offset":[
								0,
								1.4901161193847656e-08
							],
							"scale":[
								1,
								0.8899999856948853
							]
						}
					},
					"index":10,
					"texCoord":1
				},
				"metallicFactor":0,
				"metallicRoughnessTexture":{
					"extensions":{
						"KHR_texture_transform":{
							"offset":[
								0,
								1.4901161193847656e-08
							],
							"scale":[
								1,
								0.8899999856948853
							]
						}
					},
					"index":11,
					"texCoord":1
				}
			}
		}
	],
	"meshes":[
		{
			"name":"Plane",
			"primitives":[
				{
					"attributes":{
						"POSITION":0,
						"NORMAL":1,
						"TEXCOORD_0":2,
						"TEXCOORD_1":3
					},
					"indices":4,
					"material":0
				}
			]
		},
		{
			"name":"Cube.001",
			"primitives":[
				{
					"attributes":{
						"POSITION":5,
						"NORMAL":6,
						"TEXCOORD_0":7,
						"TEXCOORD_1":8
					},
					"indices":9,
					"material":1
				}
			]
		},
		{
			"name":"Cube.002",
			"primitives":[
				{
					"attributes":{
						"POSITION":10,
						"NORMAL":11,
						"TEXCOORD_0":12,
						"TEXCOORD_1":13
					},
					"indices":14,
					"material":2
				}
			]
		},
		{
			"name":"Cube.003",
			"primitives":[
				{
					"attributes":{
						"POSITION":15,
						"NORMAL":16,
						"TEXCOORD_0":17,
						"TEXCOORD_1":18
					},
					"indices":19,
					"material":3
				}
			]
		}
	],
	"textures":[
		{
			"sampler":0,
			"source":0
		},
		{
			"sampler":0,
			"source":1
		},
		{
			"sampler":0,
			"source":2
		},
		{
			"sampler":0,
			"source":3
		},
		{
			"sampler":0,
			"source":4
		},
		{
			"sampler":0,
			"source":5
		},
		{
			"sampler":0,
			"source":6
		},
		{
			"sampler":0,
			"source":7
		},
		{
			"sampler":0,
			"source":8
		},
		{
			"sampler":0,
			"source":6
		},
		{
			"sampler":0,
			"source":7
		},
		{
			"sampler":0,
			"source":8
		}
	],
	"images":[
		{
			"mimeType":"image/jpeg",
			"name":"cobbles-7_bump",
			"uri":"textures/cobbles-7_bump.jpg"
		},
		{
			"mimeType":"image/jpeg",
			"name":"cobbles-7_diffuse",
			"uri":"textures/cobbles-7_diffuse.jpg"
		},
		{
			"mimeType":"image/png",
			"name":"cobbles-7_smooth",
			"uri":"textures/cobbles-7_smooth.png"
		},
		{
			"mimeType":"image/jpeg",
			"name":"soil-14_bump",
			"uri":"textures/soil-14_bump.jpg"
		},
		{
			"mimeType":"image/jpeg",
			"name":"soil-14_diffuse",
			"uri":"textures/soil-14_diffuse.jpg"
		},
		{
			"mimeType":"image/png",
			"name":"soil-14_smooth",
			"uri":"textures/soil-14_smooth.png"
		},
		{
			"mimeType":"image/jpeg",
			"name":"wood_normal",
			"uri":"textures/wood_normal.jpg"
		},
		{
			"mimeType":"image/jpeg",
			"name":"wood_diffuse",
			"uri":"textures/wood_diffuse.jpg"
		},
		{
			"mimeType":"image/png",
			"name":"wood_glossiness",
			"uri":"textures/wood_glossiness.png"
		}
	],
	"accessors":[
		{
			"bufferView":0,
			"componentType":5126,
			"count":4,
			"max":[
				1,
				0,
				1
			],
			"min":[
				-1,
				0,
				-1
			],
			"type":"VEC3"
		},
		{
			"bufferView":1,
			"componentType":5126,
			"count":4,
			"type":"VEC3"
		},
		{
			"bufferView":2,
			"componentType":5126,
			"count":4,
			"type":"VEC2"
		},
		{
			"bufferView":3,
			"componentType":5126,
			"count":4,
			"type":"VEC2"
		},
		{
			"bufferView":4,
			"componentType":5123,
			"count":6,
			"type":"SCALAR"
		},
		{
			"bufferView":5,
			"componentType":5126,
			"count":7039,
			"max":[
				0.9375,
				189.51527404785156,
				0.9375
			],
			"min":[
				-0.96875,
				-70.68663787841797,
				-1
			],
			"type":"VEC3"
		},
		{
			"bufferView":6,
			"componentType":5126,
			"count":7039,
			"type":"VEC3"
		},
		{
			"bufferView":7,
			"componentType":5126,
			"count":7039,
			"type":"VEC2"
		},
		{
			"bufferView":8,
			"componentType":5126,
			"count":7039,
			"type":"VEC2"
		},
		{
			"bufferView":9,
			"componentType":5123,
			"count":40242,
			"type":"SCALAR"
		},
		{
			"bufferView":10,
			"componentType":5126,
			"count":80,
			"max":[
				1,
				1,
				1
			],
			"min":[
				-1,
				-1,
				-1
			],
			"type":"VEC3"
		},
		{
			"bufferView":11,
			"componentType":5126,
			"count":80,
			"type":"VEC3"
		},
		{
			"bufferView":12,
			"componentType":5126,
			"count":80,
			"type":"VEC2"
		},
		{
			"bufferView":13,
			"componentType":5126,
			"count":80,
			"type":"VEC2"
		},
		{
			"bufferView":14,
			"componentType":5123,
			"count":168,
			"type":"SCALAR"
		},
		{
			"bufferView":15,
			"componentType":5126,
			"count":430,
			"max":[
				1,
				0.06786566972732544,
				0.7972419261932373
			],
			"min":[
				-1,
				-3.6230669021606445,
				-1
			],
			"type":"VEC3"
		},
		{
			"bufferView":16,
			"componentType":5126,
			"count":430,
			"type":"VEC3"
		},
		{
			"bufferView":17,
			"componentType":5126,
			"count":430,
			"type":"VEC2"
		},
		{
			"bufferView":18,
			"componentType":5126,
			"count":430,
			"type":"VEC2"
		},
		{
			"bufferView":19,
			"componentType":5123,
			"count":768,
			"type":"SCALAR"
		}
	],
	"bufferViews":[
		{
			"buffer":0,
			"byteLength":48,
			"byteOffset":0,
			"target":34962
		},
		{
			"buffer":0,
			"byteLength":48,
			"byteOffset":48,
			"target":34962
		},
		{
			"buffer":0,
			"byteLength":32,
			"byteOffset":96,
			"target":34962
		},
		{
			"buffer":0,
			"byteLength":32,
			"byteOffset":128,
			"target":34962
		},
		{
			"buffer":0,
			"byteLength":12,
			"byteOffset":160,
			"target":34963
		},
		{
			"buffer":0,
			"byteLength":84468,
			"byteOffset":172,
			"target":34962
		},
		{
			"buffer":0,
			"byteLength":84468,
			"byteOffset":84640,
			"target":34962
		},
		{
			"buffer":0,
			"byteLength":56312,
			"byteOffset":169108,
			"target":34962
		},
		{
			"buffer":0,
			"byteLength":56312,
			"byteOffset":225420,
			"target":34962
		},
		{
			"buffer":0,
			"byteLength":80484,
			"byteOffset":281732,
			"target":34963
		},
		{
			"buffer":0,
			"byteLength":960,
			"byteOffset":362216,
			"target":34962
		},
		{
			"buffer":0,
			"byteLength":960,
			"byteOffset":363176,
			"target":34962
		},
		{
			"buffer":0,
			"byteLength":640,
			"byteOffset":364136,
			"target":34962
		},
		{
			"buffer":0,
			"byteLength":640,
			"byteOffset":364776,
			"target":34962
		},
		{
			"buffer":0,
			"byteLength":336,
			"byteOffset":365416,
			"target":34963
		},
		{
			"buffer":0,
			"byteLength":5160,
			"byteOffset":365752,
			"target":34962
		},
		{
			"buffer":0,
			"byteLength":5160,
			"byteOffset":370912,
			"target":34962
		},
		{
			"buffer":0,
			"byteLength":3440,
			"byteOffset":376072,
			"target":34962
		},
		{
			"buffer":0,
			"byteLength":3440,
			"byteOffset":379512,
			"target":34962
		},
		{
			"buffer":0,
			"byteLength":1536,
			"byteOffset":382952,
			"target":34963
		}
	],
	"samplers":[
		{
			"magFilter":9729,
			"minFilter":9987
		}
	],
	"buffers":[
		{
			"byteLength":384488,
			"uri":"brokenceiling.bin"
		}
	]
}
