{
	"asset":{
		"generator":"Khronos glTF Blender I/O v4.2.57",
		"version":"2.0"
	},
	"extensionsUsed":[
		"KHR_texture_transform"
	],
	"extensionsRequired":[
		"KHR_texture_transform"
	],
	"scene":0,
	"scenes":[
		{
			"name":"Scene",
			"nodes":[
				0,
				1,
				2,
				3,
				4,
				5,
				6,
				7,
				8,
				9,
				10,
				11,
				12,
				13,
				14,
				15,
				16,
				17
			]
		}
	],
	"nodes":[
		{
			"mesh":0,
			"name":"Cutter",
			"scale":[
				1,
				1,
				2.0489213466644287
			],
			"translation":[
				0,
				0.9597374796867371,
				0
			]
		},
		{
			"name":"Mortar",
			"rotation":[
				0,
				0,
				0.7071068286895752,
				0.7071068286895752
			],
			"scale":[
				0.5,
				0.5,
				0.5
			],
			"translation":[
				-0.012352921068668365,
				1.2745394706726074,
				-8.956218516686931e-05
			]
		},
		{
			"mesh":1,
			"name":"Wall",
			"rotation":[
				0,
				0,
				-0.7071068286895752,
				0.7071068286895752
			],
			"scale":[
				2.5,
				0.5,
				5
			],
			"translation":[
				-0.007352894637733698,
				1.8858404159545898,
				4.455622547538951e-05
			]
		},
		{
			"mesh":2,
			"name":"Cube",
			"scale":[
				0.20000000298023224,
				0.20000000298023224,
				0.20000000298023224
			],
			"translation":[
				-0.007352941203862429,
				0.2000495195388794,
				1.000044584274292
			]
		},
		{
			"mesh":3,
			"name":"Cube.001",
			"scale":[
				0.20000000298023224,
				0.20000000298023224,
				0.20000000298023224
			],
			"translation":[
				-0.007352941203862429,
				0.6250494718551636,
				1.000044584274292
			]
		},
		{
			"mesh":4,
			"name":"Cube.002",
			"scale":[
				0.20000000298023224,
				0.20000000298023224,
				0.20000000298023224
			],
			"translation":[
				-0.007352941203862429,
				1.0500494241714478,
				1.000044584274292
			]
		},
		{
			"mesh":5,
			"name":"Cube.003",
			"scale":[
				0.20000000298023224,
				0.20000000298023224,
				0.20000000298023224
			],
			"translation":[
				-0.007352941203862429,
				1.4680742025375366,
				1.000044584274292
			]
		},
		{
			"mesh":6,
			"name":"Cube.004",
			"rotation":[
				-0.19509032368659973,
				0,
				0,
				0.9807853102684021
			],
			"scale":[
				0.20000000298023224,
				0.20000000298023224,
				0.20000000298023224
			],
			"translation":[
				-0.007352938875555992,
				1.8491333723068237,
				0.9342384934425354
			]
		},
		{
			"mesh":7,
			"name":"Cube.005",
			"rotation":[
				-0.3826834261417389,
				0,
				0,
				0.9238795638084412
			],
			"scale":[
				0.20000000298023224,
				0.19953568279743195,
				0.19953568279743195
			],
			"translation":[
				-0.007352943066507578,
				2.15202260017395,
				0.7027527093887329
			]
		},
		{
			"mesh":8,
			"name":"Cube.006",
			"rotation":[
				-0.5555701851844788,
				0,
				0,
				0.8314696550369263
			],
			"scale":[
				0.20000000298023224,
				0.20000000298023224,
				0.20000000298023224
			],
			"translation":[
				-0.007352941669523716,
				2.3556864261627197,
				0.3765087127685547
			]
		},
		{
			"mesh":9,
			"name":"Cube.007",
			"scale":[
				0.20000000298023224,
				0.20000000298023224,
				0.20000000298023224
			],
			"translation":[
				-0.007352940738201141,
				2.3903937339782715,
				0.03173588216304779
			]
		},
		{
			"mesh":10,
			"name":"Cube.008",
			"rotation":[
				0,
				0.5555701851844788,
				-0.8314696550369263,
				0
			],
			"scale":[
				-0.20000000298023224,
				-0.20000000298023224,
				-0.20000000298023224
			],
			"translation":[
				-0.007352941669523716,
				2.3556864261627197,
				-0.3764423727989197
			]
		},
		{
			"mesh":11,
			"name":"Cube.009",
			"rotation":[
				0,
				0.3826834261417389,
				-0.9238795638084412,
				0
			],
			"scale":[
				-0.20000000298023224,
				-0.19953568279743195,
				-0.19953568279743195
			],
			"translation":[
				-0.007352943066507578,
				2.15202260017395,
				-0.7026865482330322
			]
		},
		{
			"mesh":12,
			"name":"Cube.010",
			"rotation":[
				0,
				0.19509032368659973,
				-0.9807853102684021,
				0
			],
			"scale":[
				-0.20000000298023224,
				-0.20000000298023224,
				-0.20000000298023224
			],
			"translation":[
				-0.007352943532168865,
				1.8477085828781128,
				-0.9327476024627686
			]
		},
		{
			"mesh":13,
			"name":"Cube.011",
			"rotation":[
				0,
				0,
				-1,
				0
			],
			"scale":[
				-0.20000000298023224,
				-0.20000000298023224,
				-0.20000000298023224
			],
			"translation":[
				-0.007352941203862429,
				1.4680742025375366,
				-0.9999783039093018
			]
		},
		{
			"mesh":14,
			"name":"Cube.012",
			"rotation":[
				0,
				0,
				-1,
				0
			],
			"scale":[
				-0.20000000298023224,
				-0.20000000298023224,
				-0.20000000298023224
			],
			"translation":[
				-0.007352941203862429,
				1.0500494241714478,
				-0.9999784231185913
			]
		},
		{
			"mesh":15,
			"name":"Cube.013",
			"rotation":[
				0,
				0,
				-1,
				0
			],
			"scale":[
				-0.20000000298023224,
				-0.20000000298023224,
				-0.20000000298023224
			],
			"translation":[
				-0.007352941203862429,
				0.6250494718551636,
				-0.9999784231185913
			]
		},
		{
			"mesh":16,
			"name":"Cube.014",
			"rotation":[
				0,
				0,
				-1,
				0
			],
			"scale":[
				-0.20000000298023224,
				-0.20000000298023224,
				-0.20000000298023224
			],
			"translation":[
				-0.007352941203862429,
				0.2000495195388794,
				-0.9999784231185913
			]
		}
	],
	"materials":[
		{
			"doubleSided":true,
			"name":"Cobbles",
			"normalTexture":{
				"extensions":{
					"KHR_texture_transform":{
						"offset":[
							0,
							0.5999999940395355
						],
						"scale":[
							0.4000000059604645,
							0.4000000059604645
						]
					}
				},
				"index":0,
				"scale":3,
				"texCoord":1
			},
			"pbrMetallicRoughness":{
				"baseColorTexture":{
					"extensions":{
						"KHR_texture_transform":{
							"offset":[
								0,
								0.5999999940395355
							],
							"scale":[
								0.4000000059604645,
								0.4000000059604645
							]
						}
					},
					"index":1,
					"texCoord":1
				},
				"metallicFactor":0,
				"metallicRoughnessTexture":{
					"extensions":{
						"KHR_texture_transform":{
							"offset":[
								0,
								0.5999999940395355
							],
							"scale":[
								0.4000000059604645,
								0.4000000059604645
							]
						}
					},
					"index":2,
					"texCoord":1
				}
			}
		},
		{
			"doubleSided":true,
			"name":"Clay Orange",
			"normalTexture":{
				"extensions":{
					"KHR_texture_transform":{
						"offset":[
							0,
							0.38999998569488525
						],
						"scale":[
							0.60999995470047,
							0.6100000143051147
						]
					}
				},
				"index":3
			},
			"pbrMetallicRoughness":{
				"baseColorTexture":{
					"extensions":{
						"KHR_texture_transform":{
							"offset":[
								0,
								0.38999998569488525
							],
							"scale":[
								0.60999995470047,
								0.6100000143051147
							]
						}
					},
					"index":4
				},
				"metallicFactor":0,
				"metallicRoughnessTexture":{
					"extensions":{
						"KHR_texture_transform":{
							"offset":[
								0,
								0.38999998569488525
							],
							"scale":[
								0.60999995470047,
								0.6100000143051147
							]
						}
					},
					"index":5
				}
			}
		},
		{
			"doubleSided":true,
			"name":"Clay Orange",
			"normalTexture":{
				"extensions":{
					"KHR_texture_transform":{
						"offset":[
							0,
							0.38999998569488525
						],
						"scale":[
							0.60999995470047,
							0.6100000143051147
						]
					}
				},
				"index":3,
				"texCoord":1
			},
			"pbrMetallicRoughness":{
				"baseColorTexture":{
					"extensions":{
						"KHR_texture_transform":{
							"offset":[
								0,
								0.38999998569488525
							],
							"scale":[
								0.60999995470047,
								0.6100000143051147
							]
						}
					},
					"index":4,
					"texCoord":1
				},
				"metallicFactor":0,
				"metallicRoughnessTexture":{
					"extensions":{
						"KHR_texture_transform":{
							"offset":[
								0,
								0.38999998569488525
							],
							"scale":[
								0.60999995470047,
								0.6100000143051147
							]
						}
					},
					"index":5,
					"texCoord":1
				}
			}
		}
	],
	"meshes":[
		{
			"name":"Cube.001",
			"primitives":[
				{
					"attributes":{
						"POSITION":0,
						"NORMAL":1,
						"TEXCOORD_0":2
					},
					"indices":3
				}
			]
		},
		{
			"name":"Plane",
			"primitives":[
				{
					"attributes":{
						"POSITION":4,
						"NORMAL":5,
						"TEXCOORD_0":6,
						"TEXCOORD_1":7
					},
					"indices":8,
					"material":0
				}
			]
		},
		{
			"name":"Cube.002",
			"primitives":[
				{
					"attributes":{
						"POSITION":9,
						"NORMAL":10,
						"TEXCOORD_0":11
					},
					"indices":12,
					"material":1
				}
			]
		},
		{
			"name":"Cube.003",
			"primitives":[
				{
					"attributes":{
						"POSITION":13,
						"NORMAL":14,
						"TEXCOORD_0":15
					},
					"indices":12,
					"material":1
				}
			]
		},
		{
			"name":"Cube.004",
			"primitives":[
				{
					"attributes":{
						"POSITION":16,
						"NORMAL":17,
						"TEXCOORD_0":18
					},
					"indices":12,
					"material":1
				}
			]
		},
		{
			"name":"Cube.005",
			"primitives":[
				{
					"attributes":{
						"POSITION":19,
						"NORMAL":20,
						"TEXCOORD_0":21
					},
					"indices":12,
					"material":1
				}
			]
		},
		{
			"name":"Cube.006",
			"primitives":[
				{
					"attributes":{
						"POSITION":22,
						"NORMAL":23,
						"TEXCOORD_0":24,
						"TEXCOORD_1":25
					},
					"indices":12,
					"material":2
				}
			]
		},
		{
			"name":"Cube.007",
			"primitives":[
				{
					"attributes":{
						"POSITION":26,
						"NORMAL":27,
						"TEXCOORD_0":28,
						"TEXCOORD_1":29
					},
					"indices":30,
					"material":2
				}
			]
		},
		{
			"name":"Cube.008",
			"primitives":[
				{
					"attributes":{
						"POSITION":31,
						"NORMAL":32,
						"TEXCOORD_0":33
					},
					"indices":34,
					"material":1
				}
			]
		},
		{
			"name":"Cube.009",
			"primitives":[
				{
					"attributes":{
						"POSITION":35,
						"NORMAL":36,
						"TEXCOORD_0":37
					},
					"indices":34,
					"material":1
				}
			]
		},
		{
			"name":"Cube.018",
			"primitives":[
				{
					"attributes":{
						"POSITION":38,
						"NORMAL":39,
						"TEXCOORD_0":40
					},
					"indices":34,
					"material":1
				}
			]
		},
		{
			"name":"Cube.019",
			"primitives":[
				{
					"attributes":{
						"POSITION":41,
						"NORMAL":42,
						"TEXCOORD_0":43
					},
					"indices":30,
					"material":1
				}
			]
		},
		{
			"name":"Cube.020",
			"primitives":[
				{
					"attributes":{
						"POSITION":44,
						"NORMAL":45,
						"TEXCOORD_0":46
					},
					"indices":47,
					"material":1
				}
			]
		},
		{
			"name":"Cube.021",
			"primitives":[
				{
					"attributes":{
						"POSITION":48,
						"NORMAL":49,
						"TEXCOORD_0":50
					},
					"indices":12,
					"material":1
				}
			]
		},
		{
			"name":"Cube.022",
			"primitives":[
				{
					"attributes":{
						"POSITION":51,
						"NORMAL":52,
						"TEXCOORD_0":53
					},
					"indices":12,
					"material":1
				}
			]
		},
		{
			"name":"Cube.023",
			"primitives":[
				{
					"attributes":{
						"POSITION":54,
						"NORMAL":55,
						"TEXCOORD_0":56
					},
					"indices":12,
					"material":1
				}
			]
		},
		{
			"name":"Cube.024",
			"primitives":[
				{
					"attributes":{
						"POSITION":57,
						"NORMAL":58,
						"TEXCOORD_0":59
					},
					"indices":12,
					"material":1
				}
			]
		}
	],
	"textures":[
		{
			"sampler":0,
			"source":0
		},
		{
			"sampler":0,
			"source":1
		},
		{
			"sampler":0,
			"source":2
		},
		{
			"sampler":0,
			"source":3
		},
		{
			"sampler":0,
			"source":4
		},
		{
			"sampler":0,
			"source":5
		}
	],
	"images":[
		{
			"mimeType":"image/jpeg",
			"name":"cobbles-7_bump",
			"uri":"textures/cobbles-7_bump.jpg"
		},
		{
			"mimeType":"image/jpeg",
			"name":"cobbles-7_diffuse",
			"uri":"textures/cobbles-7_diffuse.jpg"
		},
		{
			"mimeType":"image/png",
			"name":"cobbles-7_smooth",
			"uri":"textures/cobbles-7_smooth.png"
		},
		{
			"mimeType":"image/jpeg",
			"name":"Clay003_2K_Normal",
			"uri":"textures/Clay003_2K_Normal.jpg"
		},
		{
			"mimeType":"image/jpeg",
			"name":"Clay003_2K_Color",
			"uri":"textures/Clay003_2K_Color.jpg"
		},
		{
			"mimeType":"image/png",
			"name":"Clay003_2K_Roughness",
			"uri":"textures/Clay003_2K_Roughness.png"
		}
	],
	"accessors":[
		{
			"bufferView":0,
			"componentType":5126,
			"count":52,
			"max":[
				1,
				3.899632215499878,
				1
			],
			"min":[
				-1,
				-1,
				-1
			],
			"type":"VEC3"
		},
		{
			"bufferView":1,
			"componentType":5126,
			"count":52,
			"type":"VEC3"
		},
		{
			"bufferView":2,
			"componentType":5126,
			"count":52,
			"type":"VEC2"
		},
		{
			"bufferView":3,
			"componentType":5123,
			"count":120,
			"type":"SCALAR"
		},
		{
			"bufferView":4,
			"componentType":5126,
			"count":30,
			"max":[
				0.7543163299560547,
				0.07500000298023224,
				0.9999999403953552
			],
			"min":[
				-1.2456835508346558,
				-0.07500000298023224,
				-0.9999999403953552
			],
			"type":"VEC3"
		},
		{
			"bufferView":5,
			"componentType":5126,
			"count":30,
			"type":"VEC3"
		},
		{
			"bufferView":6,
			"componentType":5126,
			"count":30,
			"type":"VEC2"
		},
		{
			"bufferView":7,
			"componentType":5126,
			"count":30,
			"type":"VEC2"
		},
		{
			"bufferView":8,
			"componentType":5123,
			"count":78,
			"type":"SCALAR"
		},
		{
			"bufferView":9,
			"componentType":5126,
			"count":24,
			"max":[
				1,
				1,
				1
			],
			"min":[
				-1,
				-1,
				-1
			],
			"type":"VEC3"
		},
		{
			"bufferView":10,
			"componentType":5126,
			"count":24,
			"type":"VEC3"
		},
		{
			"bufferView":11,
			"componentType":5126,
			"count":24,
			"type":"VEC2"
		},
		{
			"bufferView":12,
			"componentType":5123,
			"count":36,
			"type":"SCALAR"
		},
		{
			"bufferView":13,
			"componentType":5126,
			"count":24,
			"max":[
				1,
				1,
				1
			],
			"min":[
				-1,
				-1,
				-1
			],
			"type":"VEC3"
		},
		{
			"bufferView":14,
			"componentType":5126,
			"count":24,
			"type":"VEC3"
		},
		{
			"bufferView":15,
			"componentType":5126,
			"count":24,
			"type":"VEC2"
		},
		{
			"bufferView":16,
			"componentType":5126,
			"count":24,
			"max":[
				1,
				1,
				1
			],
			"min":[
				-1,
				-1,
				-1
			],
			"type":"VEC3"
		},
		{
			"bufferView":17,
			"componentType":5126,
			"count":24,
			"type":"VEC3"
		},
		{
			"bufferView":18,
			"componentType":5126,
			"count":24,
			"type":"VEC2"
		},
		{
			"bufferView":19,
			"componentType":5126,
			"count":24,
			"max":[
				1,
				1.2810665369033813,
				1
			],
			"min":[
				-1,
				-0.9651232361793518,
				-1
			],
			"type":"VEC3"
		},
		{
			"bufferView":20,
			"componentType":5126,
			"count":24,
			"type":"VEC3"
		},
		{
			"bufferView":21,
			"componentType":5126,
			"count":24,
			"type":"VEC2"
		},
		{
			"bufferView":22,
			"componentType":5126,
			"count":24,
			"max":[
				1,
				1.1272341012954712,
				1.0274949073791504
			],
			"min":[
				-1,
				-0.880944013595581,
				-1.0308632850646973
			],
			"type":"VEC3"
		},
		{
			"bufferView":23,
			"componentType":5126,
			"count":24,
			"type":"VEC3"
		},
		{
			"bufferView":24,
			"componentType":5126,
			"count":24,
			"type":"VEC2"
		},
		{
			"bufferView":25,
			"componentType":5126,
			"count":24,
			"type":"VEC2"
		},
		{
			"bufferView":26,
			"componentType":5126,
			"count":24,
			"max":[
				1,
				1.2006564140319824,
				1.084831714630127
			],
			"min":[
				-1,
				-1.0165948867797852,
				-1.0370259284973145
			],
			"type":"VEC3"
		},
		{
			"bufferView":27,
			"componentType":5126,
			"count":24,
			"type":"VEC3"
		},
		{
			"bufferView":28,
			"componentType":5126,
			"count":24,
			"type":"VEC2"
		},
		{
			"bufferView":29,
			"componentType":5126,
			"count":24,
			"type":"VEC2"
		},
		{
			"bufferView":30,
			"componentType":5123,
			"count":36,
			"type":"SCALAR"
		},
		{
			"bufferView":31,
			"componentType":5126,
			"count":24,
			"max":[
				1,
				1.0576552152633667,
				0.9998050332069397
			],
			"min":[
				-1,
				-1.0189322233200073,
				-0.9872406721115112
			],
			"type":"VEC3"
		},
		{
			"bufferView":32,
			"componentType":5126,
			"count":24,
			"type":"VEC3"
		},
		{
			"bufferView":33,
			"componentType":5126,
			"count":24,
			"type":"VEC2"
		},
		{
			"bufferView":34,
			"componentType":5123,
			"count":36,
			"type":"SCALAR"
		},
		{
			"bufferView":35,
			"componentType":5126,
			"count":24,
			"max":[
				1,
				1.2000000476837158,
				0.9951279163360596
			],
			"min":[
				-1,
				-0.7999999523162842,
				-1.318176031112671
			],
			"type":"VEC3"
		},
		{
			"bufferView":36,
			"componentType":5126,
			"count":24,
			"type":"VEC3"
		},
		{
			"bufferView":37,
			"componentType":5126,
			"count":24,
			"type":"VEC2"
		},
		{
			"bufferView":38,
			"componentType":5126,
			"count":24,
			"max":[
				1,
				1.0576552152633667,
				0.9998050332069397
			],
			"min":[
				-1,
				-1.0189322233200073,
				-0.9872406721115112
			],
			"type":"VEC3"
		},
		{
			"bufferView":39,
			"componentType":5126,
			"count":24,
			"type":"VEC3"
		},
		{
			"bufferView":40,
			"componentType":5126,
			"count":24,
			"type":"VEC2"
		},
		{
			"bufferView":41,
			"componentType":5126,
			"count":24,
			"max":[
				1,
				1.2006564140319824,
				1.084831714630127
			],
			"min":[
				-1,
				-1.0165948867797852,
				-1.0370259284973145
			],
			"type":"VEC3"
		},
		{
			"bufferView":42,
			"componentType":5126,
			"count":24,
			"type":"VEC3"
		},
		{
			"bufferView":43,
			"componentType":5126,
			"count":24,
			"type":"VEC2"
		},
		{
			"bufferView":44,
			"componentType":5126,
			"count":24,
			"max":[
				1,
				1.1310893297195435,
				1.0150517225265503
			],
			"min":[
				-1,
				-0.8925096988677979,
				-1.0215559005737305
			],
			"type":"VEC3"
		},
		{
			"bufferView":45,
			"componentType":5126,
			"count":24,
			"type":"VEC3"
		},
		{
			"bufferView":46,
			"componentType":5126,
			"count":24,
			"type":"VEC2"
		},
		{
			"bufferView":47,
			"componentType":5123,
			"count":36,
			"type":"SCALAR"
		},
		{
			"bufferView":48,
			"componentType":5126,
			"count":24,
			"max":[
				1,
				1.2810665369033813,
				1
			],
			"min":[
				-1,
				-0.9651232361793518,
				-1
			],
			"type":"VEC3"
		},
		{
			"bufferView":49,
			"componentType":5126,
			"count":24,
			"type":"VEC3"
		},
		{
			"bufferView":50,
			"componentType":5126,
			"count":24,
			"type":"VEC2"
		},
		{
			"bufferView":51,
			"componentType":5126,
			"count":24,
			"max":[
				1,
				1,
				1
			],
			"min":[
				-1,
				-1,
				-1
			],
			"type":"VEC3"
		},
		{
			"bufferView":52,
			"componentType":5126,
			"count":24,
			"type":"VEC3"
		},
		{
			"bufferView":53,
			"componentType":5126,
			"count":24,
			"type":"VEC2"
		},
		{
			"bufferView":54,
			"componentType":5126,
			"count":24,
			"max":[
				1,
				1,
				1
			],
			"min":[
				-1,
				-1,
				-1
			],
			"type":"VEC3"
		},
		{
			"bufferView":55,
			"componentType":5126,
			"count":24,
			"type":"VEC3"
		},
		{
			"bufferView":56,
			"componentType":5126,
			"count":24,
			"type":"VEC2"
		},
		{
			"bufferView":57,
			"componentType":5126,
			"count":24,
			"max":[
				1,
				1,
				1
			],
			"min":[
				-1,
				-1,
				-1
			],
			"type":"VEC3"
		},
		{
			"bufferView":58,
			"componentType":5126,
			"count":24,
			"type":"VEC3"
		},
		{
			"bufferView":59,
			"componentType":5126,
			"count":24,
			"type":"VEC2"
		}
	],
	"bufferViews":[
		{
			"buffer":0,
			"byteLength":624,
			"byteOffset":0,
			"target":34962
		},
		{
			"buffer":0,
			"byteLength":624,
			"byteOffset":624,
			"target":34962
		},
		{
			"buffer":0,
			"byteLength":416,
			"byteOffset":1248,
			"target":34962
		},
		{
			"buffer":0,
			"byteLength":240,
			"byteOffset":1664,
			"target":34963
		},
		{
			"buffer":0,
			"byteLength":360,
			"byteOffset":1904,
			"target":34962
		},
		{
			"buffer":0,
			"byteLength":360,
			"byteOffset":2264,
			"target":34962
		},
		{
			"buffer":0,
			"byteLength":240,
			"byteOffset":2624,
			"target":34962
		},
		{
			"buffer":0,
			"byteLength":240,
			"byteOffset":2864,
			"target":34962
		},
		{
			"buffer":0,
			"byteLength":156,
			"byteOffset":3104,
			"target":34963
		},
		{
			"buffer":0,
			"byteLength":288,
			"byteOffset":3260,
			"target":34962
		},
		{
			"buffer":0,
			"byteLength":288,
			"byteOffset":3548,
			"target":34962
		},
		{
			"buffer":0,
			"byteLength":192,
			"byteOffset":3836,
			"target":34962
		},
		{
			"buffer":0,
			"byteLength":72,
			"byteOffset":4028,
			"target":34963
		},
		{
			"buffer":0,
			"byteLength":288,
			"byteOffset":4100,
			"target":34962
		},
		{
			"buffer":0,
			"byteLength":288,
			"byteOffset":4388,
			"target":34962
		},
		{
			"buffer":0,
			"byteLength":192,
			"byteOffset":4676,
			"target":34962
		},
		{
			"buffer":0,
			"byteLength":288,
			"byteOffset":4868,
			"target":34962
		},
		{
			"buffer":0,
			"byteLength":288,
			"byteOffset":5156,
			"target":34962
		},
		{
			"buffer":0,
			"byteLength":192,
			"byteOffset":5444,
			"target":34962
		},
		{
			"buffer":0,
			"byteLength":288,
			"byteOffset":5636,
			"target":34962
		},
		{
			"buffer":0,
			"byteLength":288,
			"byteOffset":5924,
			"target":34962
		},
		{
			"buffer":0,
			"byteLength":192,
			"byteOffset":6212,
			"target":34962
		},
		{
			"buffer":0,
			"byteLength":288,
			"byteOffset":6404,
			"target":34962
		},
		{
			"buffer":0,
			"byteLength":288,
			"byteOffset":6692,
			"target":34962
		},
		{
			"buffer":0,
			"byteLength":192,
			"byteOffset":6980,
			"target":34962
		},
		{
			"buffer":0,
			"byteLength":192,
			"byteOffset":7172,
			"target":34962
		},
		{
			"buffer":0,
			"byteLength":288,
			"byteOffset":7364,
			"target":34962
		},
		{
			"buffer":0,
			"byteLength":288,
			"byteOffset":7652,
			"target":34962
		},
		{
			"buffer":0,
			"byteLength":192,
			"byteOffset":7940,
			"target":34962
		},
		{
			"buffer":0,
			"byteLength":192,
			"byteOffset":8132,
			"target":34962
		},
		{
			"buffer":0,
			"byteLength":72,
			"byteOffset":8324,
			"target":34963
		},
		{
			"buffer":0,
			"byteLength":288,
			"byteOffset":8396,
			"target":34962
		},
		{
			"buffer":0,
			"byteLength":288,
			"byteOffset":8684,
			"target":34962
		},
		{
			"buffer":0,
			"byteLength":192,
			"byteOffset":8972,
			"target":34962
		},
		{
			"buffer":0,
			"byteLength":72,
			"byteOffset":9164,
			"target":34963
		},
		{
			"buffer":0,
			"byteLength":288,
			"byteOffset":9236,
			"target":34962
		},
		{
			"buffer":0,
			"byteLength":288,
			"byteOffset":9524,
			"target":34962
		},
		{
			"buffer":0,
			"byteLength":192,
			"byteOffset":9812,
			"target":34962
		},
		{
			"buffer":0,
			"byteLength":288,
			"byteOffset":10004,
			"target":34962
		},
		{
			"buffer":0,
			"byteLength":288,
			"byteOffset":10292,
			"target":34962
		},
		{
			"buffer":0,
			"byteLength":192,
			"byteOffset":10580,
			"target":34962
		},
		{
			"buffer":0,
			"byteLength":288,
			"byteOffset":10772,
			"target":34962
		},
		{
			"buffer":0,
			"byteLength":288,
			"byteOffset":11060,
			"target":34962
		},
		{
			"buffer":0,
			"byteLength":192,
			"byteOffset":11348,
			"target":34962
		},
		{
			"buffer":0,
			"byteLength":288,
			"byteOffset":11540,
			"target":34962
		},
		{
			"buffer":0,
			"byteLength":288,
			"byteOffset":11828,
			"target":34962
		},
		{
			"buffer":0,
			"byteLength":192,
			"byteOffset":12116,
			"target":34962
		},
		{
			"buffer":0,
			"byteLength":72,
			"byteOffset":12308,
			"target":34963
		},
		{
			"buffer":0,
			"byteLength":288,
			"byteOffset":12380,
			"target":34962
		},
		{
			"buffer":0,
			"byteLength":288,
			"byteOffset":12668,
			"target":34962
		},
		{
			"buffer":0,
			"byteLength":192,
			"byteOffset":12956,
			"target":34962
		},
		{
			"buffer":0,
			"byteLength":288,
			"byteOffset":13148,
			"target":34962
		},
		{
			"buffer":0,
			"byteLength":288,
			"byteOffset":13436,
			"target":34962
		},
		{
			"buffer":0,
			"byteLength":192,
			"byteOffset":13724,
			"target":34962
		},
		{
			"buffer":0,
			"byteLength":288,
			"byteOffset":13916,
			"target":34962
		},
		{
			"buffer":0,
			"byteLength":288,
			"byteOffset":14204,
			"target":34962
		},
		{
			"buffer":0,
			"byteLength":192,
			"byteOffset":14492,
			"target":34962
		},
		{
			"buffer":0,
			"byteLength":288,
			"byteOffset":14684,
			"target":34962
		},
		{
			"buffer":0,
			"byteLength":288,
			"byteOffset":14972,
			"target":34962
		},
		{
			"buffer":0,
			"byteLength":192,
			"byteOffset":15260,
			"target":34962
		}
	],
	"samplers":[
		{
			"magFilter":9729,
			"minFilter":9987
		}
	],
	"buffers":[
		{
			"byteLength":15452,
			"uri":"door.bin"
		}
	]
}
