{
	"asset":{
		"generator":"Khronos glTF Blender I/O v4.2.57",
		"version":"2.0"
	},
	"extensionsUsed":[
		"KHR_materials_specular",
		"KHR_materials_ior",
		"KHR_texture_transform"
	],
	"extensionsRequired":[
		"KHR_texture_transform"
	],
	"scene":0,
	"scenes":[
		{
			"name":"Scene",
			"nodes":[
				0,
				1,
				2
			]
		}
	],
	"nodes":[
		{
			"mesh":0,
			"name":"FLOOR",
			"scale":[
				5,
				5,
				5
			],
			"translation":[
				0,
				0.0018950700759887695,
				0
			]
		},
		{
			"mesh":1,
			"name":"PEDESTAL",
			"scale":[
				0.5,
				0.3333333432674408,
				0.5
			],
			"translation":[
				0,
				0.7848950624465942,
				0
			]
		},
		{
			"mesh":2,
			"name":"Plane",
			"scale":[
				5,
				5,
				5
			],
			"translation":[
				0,
				4,
				0
			]
		}
	],
	"materials":[
		{
			"doubleSided":true,
			"name":"Cobbles",
			"pbrMetallicRoughness":{
				"baseColorTexture":{
					"extensions":{
						"KHR_texture_transform":{
							"offset":[
								0,
								1.3999998569488525
							],
							"scale":[
								-0.39999985694885254,
								-0.39999985694885254
							]
						}
					},
					"index":0,
					"texCoord":1
				},
				"metallicFactor":0,
				"roughnessFactor":0.5
			}
		},
		{
			"doubleSided":true,
			"extensions":{
				"KHR_materials_specular":{
					"specularColorFactor":[
						1.399999976158142,
						1.399999976158142,
						1.399999976158142
					]
				},
				"KHR_materials_ior":{
					"ior":1.4500000476837158
				}
			},
			"name":"Marble",
			"normalTexture":{
				"index":1,
				"texCoord":1
			},
			"pbrMetallicRoughness":{
				"baseColorTexture":{
					"index":2,
					"texCoord":1
				},
				"metallicFactor":0,
				"metallicRoughnessTexture":{
					"index":3,
					"texCoord":1
				}
			}
		}
	],
	"meshes":[
		{
			"name":"Plane",
			"primitives":[
				{
					"attributes":{
						"POSITION":0,
						"NORMAL":1,
						"TEXCOORD_0":2,
						"TEXCOORD_1":3
					},
					"indices":4,
					"material":0
				}
			]
		},
		{
			"name":"Cylinder",
			"primitives":[
				{
					"attributes":{
						"POSITION":5,
						"NORMAL":6,
						"TEXCOORD_0":7,
						"TEXCOORD_1":8
					},
					"indices":9,
					"material":1
				}
			]
		},
		{
			"name":"Plane.001",
			"primitives":[
				{
					"attributes":{
						"POSITION":10,
						"NORMAL":11,
						"TEXCOORD_0":12,
						"TEXCOORD_1":13
					},
					"indices":14,
					"material":0
				}
			]
		}
	],
	"textures":[
		{
			"sampler":0,
			"source":0
		},
		{
			"sampler":0,
			"source":1
		},
		{
			"sampler":0,
			"source":2
		},
		{
			"sampler":0,
			"source":3
		}
	],
	"images":[
		{
			"mimeType":"image/jpeg",
			"name":"cobbles-7_diffuse",
			"uri":"textures/cobbles-7_diffuse.jpg"
		},
		{
			"mimeType":"image/jpeg",
			"name":"marble_03_normal",
			"uri":"textures/marble_03_normal.jpg"
		},
		{
			"mimeType":"image/jpeg",
			"name":"marble_03_color",
			"uri":"textures/marble_03_color.jpg"
		},
		{
			"mimeType":"image/png",
			"name":"marble_03_roughness",
			"uri":"textures/marble_03_roughness.png"
		}
	],
	"accessors":[
		{
			"bufferView":0,
			"componentType":5126,
			"count":76,
			"max":[
				1,
				0.09000000357627869,
				1
			],
			"min":[
				-1,
				0,
				-1
			],
			"type":"VEC3"
		},
		{
			"bufferView":1,
			"componentType":5126,
			"count":76,
			"type":"VEC3"
		},
		{
			"bufferView":2,
			"componentType":5126,
			"count":76,
			"type":"VEC2"
		},
		{
			"bufferView":3,
			"componentType":5126,
			"count":76,
			"type":"VEC2"
		},
		{
			"bufferView":4,
			"componentType":5123,
			"count":150,
			"type":"SCALAR"
		},
		{
			"bufferView":5,
			"componentType":5126,
			"count":912,
			"max":[
				0.6000000238418579,
				1,
				0.6000000238418579
			],
			"min":[
				-0.6000000238418579,
				-1,
				-0.6000000238418579
			],
			"type":"VEC3"
		},
		{
			"bufferView":6,
			"componentType":5126,
			"count":912,
			"type":"VEC3"
		},
		{
			"bufferView":7,
			"componentType":5126,
			"count":912,
			"type":"VEC2"
		},
		{
			"bufferView":8,
			"componentType":5126,
			"count":912,
			"type":"VEC2"
		},
		{
			"bufferView":9,
			"componentType":5123,
			"count":1716,
			"type":"SCALAR"
		},
		{
			"bufferView":10,
			"componentType":5126,
			"count":4,
			"max":[
				1,
				0,
				1
			],
			"min":[
				-1,
				0,
				-1
			],
			"type":"VEC3"
		},
		{
			"bufferView":11,
			"componentType":5126,
			"count":4,
			"type":"VEC3"
		},
		{
			"bufferView":12,
			"componentType":5126,
			"count":4,
			"type":"VEC2"
		},
		{
			"bufferView":13,
			"componentType":5126,
			"count":4,
			"type":"VEC2"
		},
		{
			"bufferView":14,
			"componentType":5123,
			"count":6,
			"type":"SCALAR"
		}
	],
	"bufferViews":[
		{
			"buffer":0,
			"byteLength":912,
			"byteOffset":0,
			"target":34962
		},
		{
			"buffer":0,
			"byteLength":912,
			"byteOffset":912,
			"target":34962
		},
		{
			"buffer":0,
			"byteLength":608,
			"byteOffset":1824,
			"target":34962
		},
		{
			"buffer":0,
			"byteLength":608,
			"byteOffset":2432,
			"target":34962
		},
		{
			"buffer":0,
			"byteLength":300,
			"byteOffset":3040,
			"target":34963
		},
		{
			"buffer":0,
			"byteLength":10944,
			"byteOffset":3340,
			"target":34962
		},
		{
			"buffer":0,
			"byteLength":10944,
			"byteOffset":14284,
			"target":34962
		},
		{
			"buffer":0,
			"byteLength":7296,
			"byteOffset":25228,
			"target":34962
		},
		{
			"buffer":0,
			"byteLength":7296,
			"byteOffset":32524,
			"target":34962
		},
		{
			"buffer":0,
			"byteLength":3432,
			"byteOffset":39820,
			"target":34963
		},
		{
			"buffer":0,
			"byteLength":48,
			"byteOffset":43252,
			"target":34962
		},
		{
			"buffer":0,
			"byteLength":48,
			"byteOffset":43300,
			"target":34962
		},
		{
			"buffer":0,
			"byteLength":32,
			"byteOffset":43348,
			"target":34962
		},
		{
			"buffer":0,
			"byteLength":32,
			"byteOffset":43380,
			"target":34962
		},
		{
			"buffer":0,
			"byteLength":12,
			"byteOffset":43412,
			"target":34963
		}
	],
	"samplers":[
		{
			"magFilter":9729,
			"minFilter":9987
		}
	],
	"buffers":[
		{
			"byteLength":43424,
			"uri":"pedestal.bin"
		}
	]
}
