{
	"asset":{
		"generator":"Khronos glTF Blender I/O v4.2.57",
		"version":"2.0"
	},
	"extensionsUsed":[
		"KHR_texture_transform"
	],
	"extensionsRequired":[
		"KHR_texture_transform"
	],
	"scene":0,
	"scenes":[
		{
			"name":"Scene",
			"nodes":[
				0,
				1,
				2,
				3,
				4,
				5,
				6
			]
		}
	],
	"nodes":[
		{
			"mesh":0,
			"name":"floor",
			"scale":[
				0.5,
				0.5,
				1
			],
			"translation":[
				-0.25,
				3.7670135498046875e-05,
				0
			]
		},
		{
			"mesh":1,
			"name":"floor.001",
			"scale":[
				0.5,
				0.5,
				1
			],
			"translation":[
				-0.25,
				2.000037670135498,
				0
			]
		},
		{
			"mesh":2,
			"name":"pillar",
			"scale":[
				0.20000000298023224,
				1,
				0.20000000298023224
			],
			"translation":[
				-0.44999998807907104,
				1.000037670135498,
				3.5
			]
		},
		{
			"mesh":3,
			"name":"front bars",
			"scale":[
				1.0499999523162842,
				0.019999999552965164,
				0.1083892285823822
			],
			"translation":[
				-1.7000000476837158,
				0.02003765106201172,
				3.5
			]
		},
		{
			"mesh":4,
			"name":"broken pillar",
			"scale":[
				0.20000000298023224,
				1,
				0.20000000298023224
			],
			"translation":[
				-0.050000011920928955,
				1.000037670135498,
				-3.5
			]
		},
		{
			"mesh":5,
			"name":"back bars",
			"scale":[
				1.0499999523162842,
				0.019999999552965164,
				0.1083892285823822
			],
			"translation":[
				1.2000000476837158,
				0.02003765106201172,
				-3.5
			]
		},
		{
			"mesh":6,
			"name":"Cube.002",
			"scale":[
				0.75,
				0.18333333730697632,
				1.25
			],
			"translation":[
				-2,
				0.18337100744247437,
				0
			]
		}
	],
	"materials":[
		{
			"doubleSided":true,
			"name":"Concrate",
			"normalTexture":{
				"extensions":{
					"KHR_texture_transform":{
						"offset":[
							0,
							5.699999809265137
						],
						"scale":[
							1,
							-4.699999809265137
						]
					}
				},
				"index":0,
				"texCoord":1
			},
			"pbrMetallicRoughness":{
				"baseColorTexture":{
					"extensions":{
						"KHR_texture_transform":{
							"offset":[
								0,
								5.699999809265137
							],
							"scale":[
								1,
								-4.699999809265137
							]
						}
					},
					"index":1,
					"texCoord":1
				},
				"metallicRoughnessTexture":{
					"extensions":{
						"KHR_texture_transform":{
							"offset":[
								0,
								5.699999809265137
							],
							"scale":[
								1,
								-4.699999809265137
							]
						}
					},
					"index":2,
					"texCoord":1
				}
			}
		},
		{
			"doubleSided":true,
			"name":"Metal",
			"normalTexture":{
				"extensions":{
					"KHR_texture_transform":{
						"offset":[
							0,
							2.6999998092651367
						],
						"scale":[
							-1.6999998092651367,
							-1.6999998092651367
						]
					}
				},
				"index":3,
				"scale":0.25,
				"texCoord":1
			},
			"pbrMetallicRoughness":{
				"baseColorTexture":{
					"extensions":{
						"KHR_texture_transform":{
							"offset":[
								0,
								2.6999998092651367
							],
							"scale":[
								-1.6999998092651367,
								-1.6999998092651367
							]
						}
					},
					"index":4,
					"texCoord":1
				},
				"metallicRoughnessTexture":{
					"extensions":{
						"KHR_texture_transform":{
							"offset":[
								0,
								2.6999998092651367
							],
							"scale":[
								-1.6999998092651367,
								-1.6999998092651367
							]
						}
					},
					"index":5,
					"texCoord":1
				}
			}
		},
		{
			"doubleSided":true,
			"name":"Concrate",
			"normalTexture":{
				"extensions":{
					"KHR_texture_transform":{
						"offset":[
							0,
							5.699999809265137
						],
						"scale":[
							1,
							-4.699999809265137
						]
					}
				},
				"index":0
			},
			"pbrMetallicRoughness":{
				"baseColorTexture":{
					"extensions":{
						"KHR_texture_transform":{
							"offset":[
								0,
								5.699999809265137
							],
							"scale":[
								1,
								-4.699999809265137
							]
						}
					},
					"index":1
				},
				"metallicRoughnessTexture":{
					"extensions":{
						"KHR_texture_transform":{
							"offset":[
								0,
								5.699999809265137
							],
							"scale":[
								1,
								-4.699999809265137
							]
						}
					},
					"index":2
				}
			}
		}
	],
	"meshes":[
		{
			"name":"Plane",
			"primitives":[
				{
					"attributes":{
						"POSITION":0,
						"NORMAL":1,
						"TEXCOORD_0":2,
						"TEXCOORD_1":3
					},
					"indices":4,
					"material":0
				}
			]
		},
		{
			"name":"Plane.001",
			"primitives":[
				{
					"attributes":{
						"POSITION":5,
						"NORMAL":6,
						"TEXCOORD_0":7,
						"TEXCOORD_1":8
					},
					"indices":4,
					"material":0
				}
			]
		},
		{
			"name":"Cube.001",
			"primitives":[
				{
					"attributes":{
						"POSITION":9,
						"NORMAL":10,
						"TEXCOORD_0":11,
						"TEXCOORD_1":12
					},
					"indices":13,
					"material":0
				}
			]
		},
		{
			"name":"Cube.010",
			"primitives":[
				{
					"attributes":{
						"POSITION":14,
						"NORMAL":15,
						"TEXCOORD_0":16,
						"TEXCOORD_1":17
					},
					"indices":18,
					"material":1
				}
			]
		},
		{
			"name":"Cube.002",
			"primitives":[
				{
					"attributes":{
						"POSITION":19,
						"NORMAL":20,
						"TEXCOORD_0":21,
						"TEXCOORD_1":22
					},
					"indices":23,
					"material":0
				}
			]
		},
		{
			"name":"Cube.011",
			"primitives":[
				{
					"attributes":{
						"POSITION":24,
						"NORMAL":25,
						"TEXCOORD_0":26,
						"TEXCOORD_1":27
					},
					"indices":18,
					"material":1
				}
			]
		},
		{
			"name":"Cube.003",
			"primitives":[
				{
					"attributes":{
						"POSITION":28,
						"NORMAL":29,
						"TEXCOORD_0":30
					},
					"indices":31,
					"material":2
				}
			]
		}
	],
	"textures":[
		{
			"sampler":0,
			"source":0
		},
		{
			"sampler":0,
			"source":1
		},
		{
			"sampler":0,
			"source":2
		},
		{
			"sampler":0,
			"source":3
		},
		{
			"sampler":0,
			"source":4
		},
		{
			"sampler":0,
			"source":5
		}
	],
	"images":[
		{
			"mimeType":"image/png",
			"name":"concrete_54_normal-2K",
			"uri":"textures/concrete_54_normal-2K.png"
		},
		{
			"mimeType":"image/png",
			"name":"concrete_54_basecolor-2K",
			"uri":"textures/concrete_54_basecolor-2K.png"
		},
		{
			"mimeType":"image/png",
			"name":"concrete_54_metallic-2K-concrete_54_roughness-2K",
			"uri":"textures/concrete_54_metallic-2K-concrete_54_roughness-2K.png"
		},
		{
			"mimeType":"image/jpeg",
			"name":"Metal_normal",
			"uri":"textures/Metal_normal.jpg"
		},
		{
			"mimeType":"image/jpeg",
			"name":"Metal_basecolor",
			"uri":"textures/Metal_basecolor.jpg"
		},
		{
			"mimeType":"image/png",
			"name":"Metal_roughness",
			"uri":"textures/Metal_roughness.png"
		}
	],
	"accessors":[
		{
			"bufferView":0,
			"componentType":5126,
			"count":4,
			"max":[
				5,
				0,
				5
			],
			"min":[
				-5,
				0,
				-5
			],
			"type":"VEC3"
		},
		{
			"bufferView":1,
			"componentType":5126,
			"count":4,
			"type":"VEC3"
		},
		{
			"bufferView":2,
			"componentType":5126,
			"count":4,
			"type":"VEC2"
		},
		{
			"bufferView":3,
			"componentType":5126,
			"count":4,
			"type":"VEC2"
		},
		{
			"bufferView":4,
			"componentType":5123,
			"count":6,
			"type":"SCALAR"
		},
		{
			"bufferView":5,
			"componentType":5126,
			"count":4,
			"max":[
				5,
				0,
				5
			],
			"min":[
				-5,
				0,
				-5
			],
			"type":"VEC3"
		},
		{
			"bufferView":6,
			"componentType":5126,
			"count":4,
			"type":"VEC3"
		},
		{
			"bufferView":7,
			"componentType":5126,
			"count":4,
			"type":"VEC2"
		},
		{
			"bufferView":8,
			"componentType":5126,
			"count":4,
			"type":"VEC2"
		},
		{
			"bufferView":9,
			"componentType":5126,
			"count":24,
			"max":[
				1,
				1,
				1
			],
			"min":[
				-1,
				-1,
				-1
			],
			"type":"VEC3"
		},
		{
			"bufferView":10,
			"componentType":5126,
			"count":24,
			"type":"VEC3"
		},
		{
			"bufferView":11,
			"componentType":5126,
			"count":24,
			"type":"VEC2"
		},
		{
			"bufferView":12,
			"componentType":5126,
			"count":24,
			"type":"VEC2"
		},
		{
			"bufferView":13,
			"componentType":5123,
			"count":36,
			"type":"SCALAR"
		},
		{
			"bufferView":14,
			"componentType":5126,
			"count":1200,
			"max":[
				1.0000001192092896,
				99,
				1
			],
			"min":[
				-1.0000001192092896,
				-1,
				-1.0000038146972656
			],
			"type":"VEC3"
		},
		{
			"bufferView":15,
			"componentType":5126,
			"count":1200,
			"type":"VEC3"
		},
		{
			"bufferView":16,
			"componentType":5126,
			"count":1200,
			"type":"VEC2"
		},
		{
			"bufferView":17,
			"componentType":5126,
			"count":1200,
			"type":"VEC2"
		},
		{
			"bufferView":18,
			"componentType":5123,
			"count":2232,
			"type":"SCALAR"
		},
		{
			"bufferView":19,
			"componentType":5126,
			"count":364,
			"max":[
				1,
				0.9803061485290527,
				1.0132901668548584
			],
			"min":[
				-1,
				-1,
				-1
			],
			"type":"VEC3"
		},
		{
			"bufferView":20,
			"componentType":5126,
			"count":364,
			"type":"VEC3"
		},
		{
			"bufferView":21,
			"componentType":5126,
			"count":364,
			"type":"VEC2"
		},
		{
			"bufferView":22,
			"componentType":5126,
			"count":364,
			"type":"VEC2"
		},
		{
			"bufferView":23,
			"componentType":5123,
			"count":600,
			"type":"SCALAR"
		},
		{
			"bufferView":24,
			"componentType":5126,
			"count":1200,
			"max":[
				1.0000001192092896,
				99,
				1
			],
			"min":[
				-1.0000001192092896,
				-1,
				-1.0000038146972656
			],
			"type":"VEC3"
		},
		{
			"bufferView":25,
			"componentType":5126,
			"count":1200,
			"type":"VEC3"
		},
		{
			"bufferView":26,
			"componentType":5126,
			"count":1200,
			"type":"VEC2"
		},
		{
			"bufferView":27,
			"componentType":5126,
			"count":1200,
			"type":"VEC2"
		},
		{
			"bufferView":28,
			"componentType":5126,
			"count":64,
			"max":[
				1.4666666984558105,
				1,
				1
			],
			"min":[
				-1,
				-1,
				-1
			],
			"type":"VEC3"
		},
		{
			"bufferView":29,
			"componentType":5126,
			"count":64,
			"type":"VEC3"
		},
		{
			"bufferView":30,
			"componentType":5126,
			"count":64,
			"type":"VEC2"
		},
		{
			"bufferView":31,
			"componentType":5123,
			"count":114,
			"type":"SCALAR"
		}
	],
	"bufferViews":[
		{
			"buffer":0,
			"byteLength":48,
			"byteOffset":0,
			"target":34962
		},
		{
			"buffer":0,
			"byteLength":48,
			"byteOffset":48,
			"target":34962
		},
		{
			"buffer":0,
			"byteLength":32,
			"byteOffset":96,
			"target":34962
		},
		{
			"buffer":0,
			"byteLength":32,
			"byteOffset":128,
			"target":34962
		},
		{
			"buffer":0,
			"byteLength":12,
			"byteOffset":160,
			"target":34963
		},
		{
			"buffer":0,
			"byteLength":48,
			"byteOffset":172,
			"target":34962
		},
		{
			"buffer":0,
			"byteLength":48,
			"byteOffset":220,
			"target":34962
		},
		{
			"buffer":0,
			"byteLength":32,
			"byteOffset":268,
			"target":34962
		},
		{
			"buffer":0,
			"byteLength":32,
			"byteOffset":300,
			"target":34962
		},
		{
			"buffer":0,
			"byteLength":288,
			"byteOffset":332,
			"target":34962
		},
		{
			"buffer":0,
			"byteLength":288,
			"byteOffset":620,
			"target":34962
		},
		{
			"buffer":0,
			"byteLength":192,
			"byteOffset":908,
			"target":34962
		},
		{
			"buffer":0,
			"byteLength":192,
			"byteOffset":1100,
			"target":34962
		},
		{
			"buffer":0,
			"byteLength":72,
			"byteOffset":1292,
			"target":34963
		},
		{
			"buffer":0,
			"byteLength":14400,
			"byteOffset":1364,
			"target":34962
		},
		{
			"buffer":0,
			"byteLength":14400,
			"byteOffset":15764,
			"target":34962
		},
		{
			"buffer":0,
			"byteLength":9600,
			"byteOffset":30164,
			"target":34962
		},
		{
			"buffer":0,
			"byteLength":9600,
			"byteOffset":39764,
			"target":34962
		},
		{
			"buffer":0,
			"byteLength":4464,
			"byteOffset":49364,
			"target":34963
		},
		{
			"buffer":0,
			"byteLength":4368,
			"byteOffset":53828,
			"target":34962
		},
		{
			"buffer":0,
			"byteLength":4368,
			"byteOffset":58196,
			"target":34962
		},
		{
			"buffer":0,
			"byteLength":2912,
			"byteOffset":62564,
			"target":34962
		},
		{
			"buffer":0,
			"byteLength":2912,
			"byteOffset":65476,
			"target":34962
		},
		{
			"buffer":0,
			"byteLength":1200,
			"byteOffset":68388,
			"target":34963
		},
		{
			"buffer":0,
			"byteLength":14400,
			"byteOffset":69588,
			"target":34962
		},
		{
			"buffer":0,
			"byteLength":14400,
			"byteOffset":83988,
			"target":34962
		},
		{
			"buffer":0,
			"byteLength":9600,
			"byteOffset":98388,
			"target":34962
		},
		{
			"buffer":0,
			"byteLength":9600,
			"byteOffset":107988,
			"target":34962
		},
		{
			"buffer":0,
			"byteLength":768,
			"byteOffset":117588,
			"target":34962
		},
		{
			"buffer":0,
			"byteLength":768,
			"byteOffset":118356,
			"target":34962
		},
		{
			"buffer":0,
			"byteLength":512,
			"byteOffset":119124,
			"target":34962
		},
		{
			"buffer":0,
			"byteLength":228,
			"byteOffset":119636,
			"target":34963
		}
	],
	"samplers":[
		{
			"magFilter":9729,
			"minFilter":9987
		}
	],
	"buffers":[
		{
			"byteLength":119864,
			"uri":"prison.bin"
		}
	]
}
