{
	"asset":{
		"generator":"Khronos glTF Blender I/O v4.2.57",
		"version":"2.0"
	},
	"extensionsUsed":[
		"KHR_materials_specular",
		"KHR_materials_ior",
		"KHR_texture_transform"
	],
	"extensionsRequired":[
		"KHR_texture_transform"
	],
	"scene":0,
	"scenes":[
		{
			"name":"Scene",
			"nodes":[
				0,
				1,
				2,
				3
			]
		}
	],
	"nodes":[
		{
			"mesh":0,
			"name":"Plane",
			"scale":[
				5,
				5,
				5
			],
			"translation":[
				-0.10497423261404037,
				0,
				0.3706093728542328
			]
		},
		{
			"mesh":1,
			"name":"Cube",
			"rotation":[
				-0.027338214218616486,
				0.1483004093170166,
				-0.8015753030776978,
				0.5785642862319946
			],
			"scale":[
				0.9573329091072083,
				0.9573328495025635,
				0.9573329091072083
			],
			"translation":[
				0.01709751784801483,
				0.6616734266281128,
				0.3706093728542328
			]
		},
		{
			"mesh":2,
			"name":"Cube.001",
			"rotation":[
				0.6924009919166565,
				0.59104323387146,
				-0.14346039295196533,
				0.3881596028804779
			],
			"scale":[
				0.5,
				0.5,
				0.5
			],
			"translation":[
				-0.5419686436653137,
				0.41493624448776245,
				1.4824373722076416
			]
		},
		{
			"mesh":3,
			"name":"Plane.001",
			"scale":[
				5,
				5,
				5
			],
			"translation":[
				-0.10497423261404037,
				4,
				0.3706093728542328
			]
		}
	],
	"materials":[
		{
			"doubleSided":true,
			"name":"Cobbles",
			"normalTexture":{
				"extensions":{
					"KHR_texture_transform":{
						"offset":[
							0,
							0.7999999970197678
						],
						"scale":[
							0.20000000298023224,
							0.20000000298023224
						]
					}
				},
				"index":0,
				"scale":3,
				"texCoord":1
			},
			"pbrMetallicRoughness":{
				"baseColorTexture":{
					"extensions":{
						"KHR_texture_transform":{
							"offset":[
								0,
								0.7999999970197678
							],
							"scale":[
								0.20000000298023224,
								0.20000000298023224
							]
						}
					},
					"index":1,
					"texCoord":1
				},
				"metallicFactor":0,
				"metallicRoughnessTexture":{
					"extensions":{
						"KHR_texture_transform":{
							"offset":[
								0,
								0.7999999970197678
							],
							"scale":[
								0.20000000298023224,
								0.20000000298023224
							]
						}
					},
					"index":2,
					"texCoord":1
				}
			}
		},
		{
			"doubleSided":true,
			"extensions":{
				"KHR_materials_specular":{
					"specularFactor":0.4000000059604645
				},
				"KHR_materials_ior":{
					"ior":1.4500000476837158
				}
			},
			"name":"Rock",
			"pbrMetallicRoughness":{
				"baseColorTexture":{
					"index":3,
					"texCoord":1
				},
				"metallicFactor":0.20000000298023224,
				"metallicRoughnessTexture":{
					"index":4,
					"texCoord":1
				}
			}
		},
		{
			"doubleSided":true,
			"extensions":{
				"KHR_materials_specular":{
					"specularFactor":0.4000000059604645
				},
				"KHR_materials_ior":{
					"ior":1.4500000476837158
				}
			},
			"name":"Rock",
			"pbrMetallicRoughness":{
				"baseColorTexture":{
					"index":3
				},
				"metallicFactor":0.20000000298023224,
				"metallicRoughnessTexture":{
					"index":4
				}
			}
		},
		{
			"doubleSided":true,
			"name":"Cobbles.001",
			"normalTexture":{
				"extensions":{
					"KHR_texture_transform":{
						"offset":[
							0,
							0.7999999970197678
						],
						"scale":[
							0.20000000298023224,
							0.20000000298023224
						]
					}
				},
				"index":5,
				"scale":3,
				"texCoord":1
			},
			"pbrMetallicRoughness":{
				"baseColorTexture":{
					"extensions":{
						"KHR_texture_transform":{
							"offset":[
								0,
								0.7999999970197678
							],
							"scale":[
								0.20000000298023224,
								0.20000000298023224
							]
						}
					},
					"index":6,
					"texCoord":1
				},
				"metallicFactor":0,
				"metallicRoughnessTexture":{
					"extensions":{
						"KHR_texture_transform":{
							"offset":[
								0,
								0.7999999970197678
							],
							"scale":[
								0.20000000298023224,
								0.20000000298023224
							]
						}
					},
					"index":7,
					"texCoord":1
				}
			}
		}
	],
	"meshes":[
		{
			"name":"Plane",
			"primitives":[
				{
					"attributes":{
						"POSITION":0,
						"NORMAL":1,
						"TEXCOORD_0":2,
						"TEXCOORD_1":3
					},
					"indices":4,
					"material":0
				}
			]
		},
		{
			"name":"Cube.003",
			"primitives":[
				{
					"attributes":{
						"POSITION":5,
						"NORMAL":6,
						"TEXCOORD_0":7,
						"TEXCOORD_1":8
					},
					"indices":9,
					"material":1
				}
			]
		},
		{
			"name":"Cube.004",
			"primitives":[
				{
					"attributes":{
						"POSITION":10,
						"NORMAL":11,
						"TEXCOORD_0":12
					},
					"indices":13,
					"material":2
				}
			]
		},
		{
			"name":"Plane.002",
			"primitives":[
				{
					"attributes":{
						"POSITION":14,
						"NORMAL":15,
						"TEXCOORD_0":16,
						"TEXCOORD_1":17
					},
					"indices":4,
					"material":3
				}
			]
		}
	],
	"textures":[
		{
			"sampler":0,
			"source":0
		},
		{
			"sampler":0,
			"source":1
		},
		{
			"sampler":0,
			"source":2
		},
		{
			"sampler":0,
			"source":3
		},
		{
			"sampler":0,
			"source":4
		},
		{
			"sampler":0,
			"source":0
		},
		{
			"sampler":0,
			"source":1
		},
		{
			"sampler":0,
			"source":2
		}
	],
	"images":[
		{
			"mimeType":"image/jpeg",
			"name":"cobbles-7_bump",
			"uri":"textures/cobbles-7_bump.jpg"
		},
		{
			"mimeType":"image/jpeg",
			"name":"cobbles-7_diffuse",
			"uri":"textures/cobbles-7_diffuse.jpg"
		},
		{
			"mimeType":"image/png",
			"name":"cobbles-7_smooth",
			"uri":"textures/cobbles-7_smooth.png"
		},
		{
			"mimeType":"image/jpeg",
			"name":"stone-49_diffuse",
			"uri":"textures/stone-49_diffuse.jpg"
		},
		{
			"mimeType":"image/png",
			"name":"stone-49_smooth",
			"uri":"textures/stone-49_smooth.png"
		}
	],
	"accessors":[
		{
			"bufferView":0,
			"componentType":5126,
			"count":4,
			"max":[
				1,
				0,
				1
			],
			"min":[
				-1,
				0,
				-1
			],
			"type":"VEC3"
		},
		{
			"bufferView":1,
			"componentType":5126,
			"count":4,
			"type":"VEC3"
		},
		{
			"bufferView":2,
			"componentType":5126,
			"count":4,
			"type":"VEC2"
		},
		{
			"bufferView":3,
			"componentType":5126,
			"count":4,
			"type":"VEC2"
		},
		{
			"bufferView":4,
			"componentType":5123,
			"count":6,
			"type":"SCALAR"
		},
		{
			"bufferView":5,
			"componentType":5126,
			"count":1492,
			"max":[
				0.91773521900177,
				1.0731652975082397,
				1.0736087560653687
			],
			"min":[
				-0.927297055721283,
				-1.080076813697815,
				-0.8756516575813293
			],
			"type":"VEC3"
		},
		{
			"bufferView":6,
			"componentType":5126,
			"count":1492,
			"type":"VEC3"
		},
		{
			"bufferView":7,
			"componentType":5126,
			"count":1492,
			"type":"VEC2"
		},
		{
			"bufferView":8,
			"componentType":5126,
			"count":1492,
			"type":"VEC2"
		},
		{
			"bufferView":9,
			"componentType":5123,
			"count":2100,
			"type":"SCALAR"
		},
		{
			"bufferView":10,
			"componentType":5126,
			"count":1600,
			"max":[
				0.91773521900177,
				1.0731652975082397,
				1.0736087560653687
			],
			"min":[
				-0.927297055721283,
				-1.080076813697815,
				-0.8756516575813293
			],
			"type":"VEC3"
		},
		{
			"bufferView":11,
			"componentType":5126,
			"count":1600,
			"type":"VEC3"
		},
		{
			"bufferView":12,
			"componentType":5126,
			"count":1600,
			"type":"VEC2"
		},
		{
			"bufferView":13,
			"componentType":5123,
			"count":2172,
			"type":"SCALAR"
		},
		{
			"bufferView":14,
			"componentType":5126,
			"count":4,
			"max":[
				1,
				0,
				1
			],
			"min":[
				-1,
				0,
				-1
			],
			"type":"VEC3"
		},
		{
			"bufferView":15,
			"componentType":5126,
			"count":4,
			"type":"VEC3"
		},
		{
			"bufferView":16,
			"componentType":5126,
			"count":4,
			"type":"VEC2"
		},
		{
			"bufferView":17,
			"componentType":5126,
			"count":4,
			"type":"VEC2"
		}
	],
	"bufferViews":[
		{
			"buffer":0,
			"byteLength":48,
			"byteOffset":0,
			"target":34962
		},
		{
			"buffer":0,
			"byteLength":48,
			"byteOffset":48,
			"target":34962
		},
		{
			"buffer":0,
			"byteLength":32,
			"byteOffset":96,
			"target":34962
		},
		{
			"buffer":0,
			"byteLength":32,
			"byteOffset":128,
			"target":34962
		},
		{
			"buffer":0,
			"byteLength":12,
			"byteOffset":160,
			"target":34963
		},
		{
			"buffer":0,
			"byteLength":17904,
			"byteOffset":172,
			"target":34962
		},
		{
			"buffer":0,
			"byteLength":17904,
			"byteOffset":18076,
			"target":34962
		},
		{
			"buffer":0,
			"byteLength":11936,
			"byteOffset":35980,
			"target":34962
		},
		{
			"buffer":0,
			"byteLength":11936,
			"byteOffset":47916,
			"target":34962
		},
		{
			"buffer":0,
			"byteLength":4200,
			"byteOffset":59852,
			"target":34963
		},
		{
			"buffer":0,
			"byteLength":19200,
			"byteOffset":64052,
			"target":34962
		},
		{
			"buffer":0,
			"byteLength":19200,
			"byteOffset":83252,
			"target":34962
		},
		{
			"buffer":0,
			"byteLength":12800,
			"byteOffset":102452,
			"target":34962
		},
		{
			"buffer":0,
			"byteLength":4344,
			"byteOffset":115252,
			"target":34963
		},
		{
			"buffer":0,
			"byteLength":48,
			"byteOffset":119596,
			"target":34962
		},
		{
			"buffer":0,
			"byteLength":48,
			"byteOffset":119644,
			"target":34962
		},
		{
			"buffer":0,
			"byteLength":32,
			"byteOffset":119692,
			"target":34962
		},
		{
			"buffer":0,
			"byteLength":32,
			"byteOffset":119724,
			"target":34962
		}
	],
	"samplers":[
		{
			"magFilter":9729,
			"minFilter":9987
		}
	],
	"buffers":[
		{
			"byteLength":119756,
			"uri":"rockroom.bin"
		}
	]
}
