{
	"asset":{
		"generator":"Khronos glTF Blender I/O v4.2.57",
		"version":"2.0"
	},
	"extensionsUsed":[
		"KHR_texture_transform"
	],
	"extensionsRequired":[
		"KHR_texture_transform"
	],
	"scene":0,
	"scenes":[
		{
			"name":"Scene",
			"nodes":[
				0,
				1,
				2,
				3,
				4,
				5,
				6
			]
		}
	],
	"nodes":[
		{
			"mesh":0,
			"name":"Floor",
			"scale":[
				0.5,
				0.5,
				0.5
			],
			"translation":[
				0,
				-0.4999983310699463,
				0
			]
		},
		{
			"mesh":1,
			"name":"Sand",
			"scale":[
				20,
				1,
				40
			],
			"translation":[
				0,
				-2.5821590423583984,
				0
			]
		},
		{
			"mesh":2,
			"name":"Torus.001",
			"scale":[
				0.6209191083908081,
				0.6209191083908081,
				0.6209191083908081
			],
			"translation":[
				-2.5,
				4.000001907348633,
				7
			]
		},
		{
			"mesh":3,
			"name":"Torus.003",
			"scale":[
				0.6209191083908081,
				0.6209191083908081,
				0.6209191083908081
			],
			"translation":[
				2.5,
				1.0000016689300537,
				7
			]
		},
		{
			"mesh":4,
			"name":"Torus.005",
			"scale":[
				0.6209191083908081,
				0.6209191083908081,
				0.6209191083908081
			],
			"translation":[
				2.5,
				4.000001907348633,
				-7
			]
		},
		{
			"mesh":5,
			"name":"Torus.006",
			"scale":[
				0.6209191083908081,
				0.6209191083908081,
				0.6209191083908081
			],
			"translation":[
				-2.5,
				4.000001907348633,
				-7
			]
		},
		{
			"mesh":6,
			"name":"Plane",
			"scale":[
				5,
				1,
				10
			],
			"translation":[
				0,
				5,
				0
			]
		}
	],
	"materials":[
		{
			"doubleSided":true,
			"name":"Cobbles",
			"normalTexture":{
				"extensions":{
					"KHR_texture_transform":{
						"offset":[
							0,
							0.8499999940395355
						],
						"scale":[
							0.15000000596046448,
							0.15000000596046448
						]
					}
				},
				"index":0,
				"scale":3,
				"texCoord":1
			},
			"pbrMetallicRoughness":{
				"baseColorTexture":{
					"extensions":{
						"KHR_texture_transform":{
							"offset":[
								0,
								0.8499999940395355
							],
							"scale":[
								0.15000000596046448,
								0.15000000596046448
							]
						}
					},
					"index":1,
					"texCoord":1
				},
				"metallicFactor":0,
				"metallicRoughnessTexture":{
					"extensions":{
						"KHR_texture_transform":{
							"offset":[
								0,
								0.8499999940395355
							],
							"scale":[
								0.15000000596046448,
								0.15000000596046448
							]
						}
					},
					"index":2,
					"texCoord":1
				}
			}
		},
		{
			"alphaMode":"BLEND",
			"doubleSided":true,
			"name":"Sand beach",
			"normalTexture":{
				"extensions":{
					"KHR_texture_transform":{
						"offset":[
							0,
							-199
						],
						"scale":[
							200,
							200
						]
					}
				},
				"index":3,
				"texCoord":1
			},
			"pbrMetallicRoughness":{
				"baseColorTexture":{
					"extensions":{
						"KHR_texture_transform":{
							"offset":[
								0,
								-199
							],
							"scale":[
								200,
								200
							]
						}
					},
					"index":4,
					"texCoord":1
				},
				"metallicRoughnessTexture":{
					"extensions":{
						"KHR_texture_transform":{
							"offset":[
								0,
								-199
							],
							"scale":[
								200,
								200
							]
						}
					},
					"index":5,
					"texCoord":1
				}
			}
		},
		{
			"doubleSided":true,
			"name":"Marble 7",
			"normalTexture":{
				"index":6
			},
			"pbrMetallicRoughness":{
				"baseColorTexture":{
					"index":7
				},
				"metallicFactor":0,
				"metallicRoughnessTexture":{
					"index":8
				}
			}
		},
		{
			"doubleSided":true,
			"name":"Cobbles",
			"normalTexture":{
				"extensions":{
					"KHR_texture_transform":{
						"offset":[
							0,
							0.8499999940395355
						],
						"scale":[
							0.15000000596046448,
							0.15000000596046448
						]
					}
				},
				"index":0,
				"scale":3
			},
			"pbrMetallicRoughness":{
				"baseColorTexture":{
					"extensions":{
						"KHR_texture_transform":{
							"offset":[
								0,
								0.8499999940395355
							],
							"scale":[
								0.15000000596046448,
								0.15000000596046448
							]
						}
					},
					"index":1
				},
				"metallicFactor":0,
				"metallicRoughnessTexture":{
					"extensions":{
						"KHR_texture_transform":{
							"offset":[
								0,
								0.8499999940395355
							],
							"scale":[
								0.15000000596046448,
								0.15000000596046448
							]
						}
					},
					"index":2
				}
			}
		}
	],
	"meshes":[
		{
			"name":"Cube.001",
			"primitives":[
				{
					"attributes":{
						"POSITION":0,
						"NORMAL":1,
						"TEXCOORD_0":2,
						"TEXCOORD_1":3
					},
					"indices":4,
					"material":0
				}
			]
		},
		{
			"name":"Plane.006",
			"primitives":[
				{
					"attributes":{
						"POSITION":5,
						"NORMAL":6,
						"TEXCOORD_0":7,
						"TEXCOORD_1":8
					},
					"indices":9,
					"material":1
				}
			]
		},
		{
			"name":"Torus.001",
			"primitives":[
				{
					"attributes":{
						"POSITION":10,
						"NORMAL":11,
						"TEXCOORD_0":12
					},
					"indices":13,
					"material":2
				}
			]
		},
		{
			"name":"Torus.003",
			"primitives":[
				{
					"attributes":{
						"POSITION":14,
						"NORMAL":15,
						"TEXCOORD_0":16
					},
					"indices":17,
					"material":2
				}
			]
		},
		{
			"name":"Torus.005",
			"primitives":[
				{
					"attributes":{
						"POSITION":18,
						"NORMAL":19,
						"TEXCOORD_0":20
					},
					"indices":21,
					"material":2
				}
			]
		},
		{
			"name":"Torus.006",
			"primitives":[
				{
					"attributes":{
						"POSITION":22,
						"NORMAL":23,
						"TEXCOORD_0":24
					},
					"indices":25,
					"material":2
				}
			]
		},
		{
			"name":"Plane",
			"primitives":[
				{
					"attributes":{
						"POSITION":26,
						"NORMAL":27,
						"TEXCOORD_0":28
					},
					"indices":29,
					"material":3
				}
			]
		}
	],
	"textures":[
		{
			"sampler":0,
			"source":0
		},
		{
			"sampler":0,
			"source":1
		},
		{
			"sampler":0,
			"source":2
		},
		{
			"sampler":0,
			"source":3
		},
		{
			"sampler":0,
			"source":4
		},
		{
			"sampler":0,
			"source":5
		},
		{
			"sampler":0,
			"source":6
		},
		{
			"sampler":0,
			"source":7
		},
		{
			"sampler":0,
			"source":8
		}
	],
	"images":[
		{
			"mimeType":"image/jpeg",
			"name":"cobbles-7_bump",
			"uri":"textures/cobbles-7_bump.jpg"
		},
		{
			"mimeType":"image/jpeg",
			"name":"cobbles-7_diffuse",
			"uri":"textures/cobbles-7_diffuse.jpg"
		},
		{
			"mimeType":"image/png",
			"name":"cobbles-7_smooth",
			"uri":"textures/cobbles-7_smooth.png"
		},
		{
			"mimeType":"image/jpeg",
			"name":"sand beach_Normal",
			"uri":"textures/sand%20beach_Normal.jpg"
		},
		{
			"mimeType":"image/png",
			"name":"sand beach_BaseColor-sand beach_Alpha",
			"uri":"textures/sand%20beach_BaseColor-sand%20beach_Alpha.png"
		},
		{
			"mimeType":"image/png",
			"name":"sand beach_Metallic-sand beach_Roughness",
			"uri":"textures/sand%20beach_Metallic-sand%20beach_Roughness.png"
		},
		{
			"mimeType":"image/jpeg",
			"name":"cobbles-5_normal",
			"uri":"textures/cobbles-5_normal.jpg"
		},
		{
			"mimeType":"image/png",
			"name":"marble 7",
			"uri":"textures/marble%207.png"
		},
		{
			"mimeType":"image/png",
			"name":"cobbles-5_normal",
			"uri":"textures/cobbles-5_normal.png"
		}
	],
	"accessors":[
		{
			"bufferView":0,
			"componentType":5126,
			"count":233,
			"max":[
				10,
				1,
				20
			],
			"min":[
				-10,
				-3,
				-20
			],
			"type":"VEC3"
		},
		{
			"bufferView":1,
			"componentType":5126,
			"count":233,
			"type":"VEC3"
		},
		{
			"bufferView":2,
			"componentType":5126,
			"count":233,
			"type":"VEC2"
		},
		{
			"bufferView":3,
			"componentType":5126,
			"count":233,
			"type":"VEC2"
		},
		{
			"bufferView":4,
			"componentType":5123,
			"count":444,
			"type":"SCALAR"
		},
		{
			"bufferView":5,
			"componentType":5126,
			"count":3816,
			"max":[
				0.2549019753932953,
				0,
				0.343137264251709
			],
			"min":[
				-0.2549019753932953,
				0,
				-0.3529411554336548
			],
			"type":"VEC3"
		},
		{
			"bufferView":6,
			"componentType":5126,
			"count":3816,
			"type":"VEC3"
		},
		{
			"bufferView":7,
			"componentType":5126,
			"count":3816,
			"type":"VEC2"
		},
		{
			"bufferView":8,
			"componentType":5126,
			"count":3816,
			"type":"VEC2"
		},
		{
			"bufferView":9,
			"componentType":5123,
			"count":22152,
			"type":"SCALAR"
		},
		{
			"bufferView":10,
			"componentType":5126,
			"count":2116,
			"max":[
				1.1400001049041748,
				1.6105146408081055,
				1.1400010585784912
			],
			"min":[
				-1.1400001049041748,
				-9.663095474243164,
				-1.1400001049041748
			],
			"type":"VEC3"
		},
		{
			"bufferView":11,
			"componentType":5126,
			"count":2116,
			"type":"VEC3"
		},
		{
			"bufferView":12,
			"componentType":5126,
			"count":2116,
			"type":"VEC2"
		},
		{
			"bufferView":13,
			"componentType":5123,
			"count":3720,
			"type":"SCALAR"
		},
		{
			"bufferView":14,
			"componentType":5126,
			"count":2085,
			"max":[
				1.1400001049041748,
				6.4420623779296875,
				1.1400010585784912
			],
			"min":[
				-1.1400001049041748,
				-4.831547737121582,
				-1.1400001049041748
			],
			"type":"VEC3"
		},
		{
			"bufferView":15,
			"componentType":5126,
			"count":2085,
			"type":"VEC3"
		},
		{
			"bufferView":16,
			"componentType":5126,
			"count":2085,
			"type":"VEC2"
		},
		{
			"bufferView":17,
			"componentType":5123,
			"count":3630,
			"type":"SCALAR"
		},
		{
			"bufferView":18,
			"componentType":5126,
			"count":2084,
			"max":[
				1.1400001049041748,
				1.6105146408081055,
				1.1400001049041748
			],
			"min":[
				-1.1400001049041748,
				-9.663095474243164,
				-1.1400010585784912
			],
			"type":"VEC3"
		},
		{
			"bufferView":19,
			"componentType":5126,
			"count":2084,
			"type":"VEC3"
		},
		{
			"bufferView":20,
			"componentType":5126,
			"count":2084,
			"type":"VEC2"
		},
		{
			"bufferView":21,
			"componentType":5123,
			"count":3624,
			"type":"SCALAR"
		},
		{
			"bufferView":22,
			"componentType":5126,
			"count":2084,
			"max":[
				1.1400001049041748,
				1.6105146408081055,
				1.1400001049041748
			],
			"min":[
				-1.1400001049041748,
				-9.663095474243164,
				-1.1400010585784912
			],
			"type":"VEC3"
		},
		{
			"bufferView":23,
			"componentType":5126,
			"count":2084,
			"type":"VEC3"
		},
		{
			"bufferView":24,
			"componentType":5126,
			"count":2084,
			"type":"VEC2"
		},
		{
			"bufferView":25,
			"componentType":5123,
			"count":3624,
			"type":"SCALAR"
		},
		{
			"bufferView":26,
			"componentType":5126,
			"count":4,
			"max":[
				1,
				0,
				1
			],
			"min":[
				-1,
				0,
				-1
			],
			"type":"VEC3"
		},
		{
			"bufferView":27,
			"componentType":5126,
			"count":4,
			"type":"VEC3"
		},
		{
			"bufferView":28,
			"componentType":5126,
			"count":4,
			"type":"VEC2"
		},
		{
			"bufferView":29,
			"componentType":5123,
			"count":6,
			"type":"SCALAR"
		}
	],
	"bufferViews":[
		{
			"buffer":0,
			"byteLength":2796,
			"byteOffset":0,
			"target":34962
		},
		{
			"buffer":0,
			"byteLength":2796,
			"byteOffset":2796,
			"target":34962
		},
		{
			"buffer":0,
			"byteLength":1864,
			"byteOffset":5592,
			"target":34962
		},
		{
			"buffer":0,
			"byteLength":1864,
			"byteOffset":7456,
			"target":34962
		},
		{
			"buffer":0,
			"byteLength":888,
			"byteOffset":9320,
			"target":34963
		},
		{
			"buffer":0,
			"byteLength":45792,
			"byteOffset":10208,
			"target":34962
		},
		{
			"buffer":0,
			"byteLength":45792,
			"byteOffset":56000,
			"target":34962
		},
		{
			"buffer":0,
			"byteLength":30528,
			"byteOffset":101792,
			"target":34962
		},
		{
			"buffer":0,
			"byteLength":30528,
			"byteOffset":132320,
			"target":34962
		},
		{
			"buffer":0,
			"byteLength":44304,
			"byteOffset":162848,
			"target":34963
		},
		{
			"buffer":0,
			"byteLength":25392,
			"byteOffset":207152,
			"target":34962
		},
		{
			"buffer":0,
			"byteLength":25392,
			"byteOffset":232544,
			"target":34962
		},
		{
			"buffer":0,
			"byteLength":16928,
			"byteOffset":257936,
			"target":34962
		},
		{
			"buffer":0,
			"byteLength":7440,
			"byteOffset":274864,
			"target":34963
		},
		{
			"buffer":0,
			"byteLength":25020,
			"byteOffset":282304,
			"target":34962
		},
		{
			"buffer":0,
			"byteLength":25020,
			"byteOffset":307324,
			"target":34962
		},
		{
			"buffer":0,
			"byteLength":16680,
			"byteOffset":332344,
			"target":34962
		},
		{
			"buffer":0,
			"byteLength":7260,
			"byteOffset":349024,
			"target":34963
		},
		{
			"buffer":0,
			"byteLength":25008,
			"byteOffset":356284,
			"target":34962
		},
		{
			"buffer":0,
			"byteLength":25008,
			"byteOffset":381292,
			"target":34962
		},
		{
			"buffer":0,
			"byteLength":16672,
			"byteOffset":406300,
			"target":34962
		},
		{
			"buffer":0,
			"byteLength":7248,
			"byteOffset":422972,
			"target":34963
		},
		{
			"buffer":0,
			"byteLength":25008,
			"byteOffset":430220,
			"target":34962
		},
		{
			"buffer":0,
			"byteLength":25008,
			"byteOffset":455228,
			"target":34962
		},
		{
			"buffer":0,
			"byteLength":16672,
			"byteOffset":480236,
			"target":34962
		},
		{
			"buffer":0,
			"byteLength":7248,
			"byteOffset":496908,
			"target":34963
		},
		{
			"buffer":0,
			"byteLength":48,
			"byteOffset":504156,
			"target":34962
		},
		{
			"buffer":0,
			"byteLength":48,
			"byteOffset":504204,
			"target":34962
		},
		{
			"buffer":0,
			"byteLength":32,
			"byteOffset":504252,
			"target":34962
		},
		{
			"buffer":0,
			"byteLength":12,
			"byteOffset":504284,
			"target":34963
		}
	],
	"samplers":[
		{
			"magFilter":9729,
			"minFilter":9987
		}
	],
	"buffers":[
		{
			"byteLength":504296,
			"uri":"sandpit.bin"
		}
	]
}
